{
  "accessors": [
    {
      "bufferView": 3,
      "componentType": 5126,
      "count": 5626,
      "max": [
        0.6995251774787903,
        1.2125558853149414,
        0.16179579496383667
      ],
      "min": [
        -0.6980249285697937,
        0.513855516910553,
        -0.12106238305568695
      ],
      "type": "VEC3"
    },
    {
      "bufferView": 3,
      "byteOffset": 67512,
      "componentType": 5126,
      "count": 5626,
      "max": [
        0.9997214674949646,
        1.0,
        0.9999688267707825
      ],
      "min": [
        -0.9997535347938538,
        -0.999845564365387,
        -0.999845564365387
      ],
      "type": "VEC3"
    },
    {
      "bufferView": 4,
      "componentType": 5126,
      "count": 5626,
      "max": [
        0.9999974370002747,
        0.999957263469696,
        0.9997513890266418,
        1.0
      ],
      "min": [
        -0.9999642372131348,
        -0.9996356964111328,
        -0.9998746514320374,
        -1.0
      ],
      "type": "VEC4"
    },
    {
      "bufferView": 2,
      "componentType": 5126,
      "count": 5626,
      "max": [
        0.9922029972076416,
        0.996088981628418
      ],
      "min": [
        0.006455000024288893,
        0.004512012004852295
      ],
      "type": "VEC2"
    },
    {
      "bufferView": 1,
      "componentType": 5125,
      "count": 29034,
      "type": "SCALAR"
    },
    {
      "bufferView": 3,
      "byteOffset": 135024,
      "componentType": 5126,
      "count": 1212,
      "max": [
        0.12843486666679382,
        0.6951414346694946,
        0.16518646478652954
      ],
      "min": [
        -0.12177415192127228,
        -0.00011243863264098763,
        -0.07924352586269379
      ],
      "type": "VEC3"
    },
    {
      "bufferView": 3,
      "byteOffset": 149568,
      "componentType": 5126,
      "count": 1212,
      "max": [
        0.999843180179596,
        0.9848363399505615,
        0.9997214674949646
      ],
      "min": [
        -0.9997503757476807,
        -0.9999383687973022,
        -0.9977366924285889
      ],
      "type": "VEC3"
    },
    {
      "bufferView": 4,
      "byteOffset": 90016,
      "componentType": 5126,
      "count": 1212,
      "max": [
        0.9990842938423157,
        0.9471038579940796,
        0.9994540810585022,
        -1.0
      ],
      "min": [
        -0.9989578127861023,
        -0.9084201455116272,
        -0.999852180480957,
        -1.0
      ],
      "type": "VEC4"
    },
    {
      "bufferView": 2,
      "byteOffset": 45008,
      "componentType": 5126,
      "count": 1212,
      "max": [
        0.9898830056190491,
        0.996379017829895
      ],
      "min": [
        0.006699000019580126,
        0.009288012981414795
      ],
      "type": "VEC2"
    },
    {
      "bufferView": 1,
      "byteOffset": 116136,
      "componentType": 5125,
      "count": 6219,
      "type": "SCALAR"
    },
    {
      "bufferView": 3,
      "byteOffset": 164112,
      "componentType": 5126,
      "count": 2705,
      "max": [
        0.067594014108181,
        1.36102294921875,
        0.12302658706903458
      ],
      "min": [
        -0.06963393092155457,
        1.1219450235366821,
        -0.049665454775094986
      ],
      "type": "VEC3"
    },
    {
      "bufferView": 3,
      "byteOffset": 196572,
      "componentType": 5126,
      "count": 2705,
      "max": [
        0.9995951056480408,
        0.9993789196014404,
        1.0
      ],
      "min": [
        -0.9995982050895691,
        -0.999846339225769,
        -0.9987307786941528
      ],
      "type": "VEC3"
    },
    {
      "bufferView": 4,
      "byteOffset": 109408,
      "componentType": 5126,
      "count": 2705,
      "max": [
        0.9997860193252563,
        0.9976865649223328,
        0.9988312125205994,
        1.0
      ],
      "min": [
        -0.9999958276748657,
        -0.9951920509338379,
        -0.9997153282165527,
        -1.0
      ],
      "type": "VEC4"
    },
    {
      "bufferView": 2,
      "byteOffset": 54704,
      "componentType": 5126,
      "count": 2705,
      "max": [
        0.993332028388977,
        0.9864000082015991
      ],
      "min": [
        0.00749199977144599,
        0.016231000423431396
      ],
      "type": "VEC2"
    },
    {
      "bufferView": 1,
      "byteOffset": 141012,
      "componentType": 5125,
      "count": 14904,
      "type": "SCALAR"
    },
    {
      "bufferView": 3,
      "byteOffset": 229032,
      "componentType": 5126,
      "count": 304,
      "max": [
        0.034369245171546936,
        1.2822686433792114,
        0.09391756355762482
      ],
      "min": [
        -0.03436201065778732,
        1.2623509168624878,
        0.07399977743625641
      ],
      "type": "VEC3"
    },
    {
      "bufferView": 3,
      "byteOffset": 232680,
      "componentType": 5126,
      "count": 304,
      "max": [
        1.0,
        1.0,
        1.0
      ],
      "min": [
        -0.9999383687973022,
        -0.9999375939369202,
        -0.9999375939369202
      ],
      "type": "VEC3"
    },
    {
      "bufferView": 4,
      "byteOffset": 152688,
      "componentType": 5126,
      "count": 304,
      "max": [
        0.9999999403953552,
        1.0,
        0.954748272895813,
        1.0
      ],
      "min": [
        -1.0,
        -0.9998844861984253,
        -0.9547839164733887,
        -1.0
      ],
      "type": "VEC4"
    },
    {
      "bufferView": 2,
      "byteOffset": 76344,
      "componentType": 5126,
      "count": 304,
      "max": [
        0.9952999949455261,
        0.9882000088691711
      ],
      "min": [
        0.010192999616265297,
        0.0031999945640563965
      ],
      "type": "VEC2"
    },
    {
      "bufferView": 1,
      "byteOffset": 200628,
      "componentType": 5125,
      "count": 1800,
      "type": "SCALAR"
    },
    {
      "bufferView": 5,
      "componentType": 5126,
      "count": 114,
      "max": [
        1.0000004768371582,
        1.0000001192092896,
        1.0000001192092896,
        0.0,
        0.9999997615814209,
        1.0,
        0.9999998211860657,
        0.0,
        0.9999997615814209,
        0.9998846650123596,
        1.0,
        0.0,
        1.198153018951416,
        1.1325162649154663,
        1.284306287765503,
        1.0
      ],
      "min": [
        -0.9999780058860779,
        -1.0000001192092896,
        -1.000000238418579,
        0.0,
        -0.9999473690986633,
        -0.9999991059303284,
        -0.9999998807907104,
        0.0,
        -0.9999769926071167,
        -0.9999884366989136,
        -0.9999997615814209,
        0.0,
        -1.272170066833496,
        -1.2412898540496826,
        -1.2843058109283447,
        1.0
      ],
      "type": "MAT4"
    },
    {
      "bufferView": 0,
      "componentType": 5123,
      "count": 5626,
      "type": "VEC4"
    },
    {
      "bufferView": 4,
      "byteOffset": 157552,
      "componentType": 5126,
      "count": 5626,
      "max": [
        1.0,
        0.5,
        0.3163839876651764,
        0.0
      ],
      "min": [
        0.3481546640396118,
        0.0,
        0.0,
        0.0
      ],
      "type": "VEC4"
    },
    {
      "bufferView": 0,
      "byteOffset": 45008,
      "componentType": 5123,
      "count": 1212,
      "type": "VEC4"
    },
    {
      "bufferView": 4,
      "byteOffset": 247568,
      "componentType": 5126,
      "count": 1212,
      "max": [
        1.0,
        0.5,
        0.3111110031604767,
        0.0
      ],
      "min": [
        0.3660539984703064,
        0.0,
        0.0,
        0.0
      ],
      "type": "VEC4"
    },
    {
      "bufferView": 0,
      "byteOffset": 54704,
      "componentType": 5123,
      "count": 2705,
      "type": "VEC4"
    },
    {
      "bufferView": 4,
      "byteOffset": 266960,
      "componentType": 5126,
      "count": 2705,
      "max": [
        1.0,
        0.5,
        0.32748499512672424,
        0.0
      ],
      "min": [
        0.33683300018310547,
        0.0,
        0.0,
        0.0
      ],
      "type": "VEC4"
    },
    {
      "bufferView": 0,
      "byteOffset": 76344,
      "componentType": 5123,
      "count": 304,
      "type": "VEC4"
    },
    {
      "bufferView": 4,
      "byteOffset": 310240,
      "componentType": 5126,
      "count": 304,
      "max": [
        1.0,
        0.0,
        0.0,
        0.0
      ],
      "min": [
        1.0,
        0.0,
        0.0,
        0.0
      ],
      "type": "VEC4"
    }
  ],
  "asset": {
    "extras": {
      "author": "photon (that one larry) (https://sketchfab.com/Professor_E12)",
      "license": "CC-BY-4.0 (http://creativecommons.org/licenses/by/4.0/)",
      "source": "https://sketchfab.com/3d-models/zombie-doom-scientist-f8968b245d2c4abfbe6f170069993476",
      "title": "Zombie doom scientist"
    },
    "generator": "Sketchfab-17.17.0",
    "version": "2.0"
  },
  "bufferViews": [
    {
      "buffer": 0,
      "byteLength": 78776,
      "byteStride": 8,
      "name": "shortBufferViews",
      "target": 34962
    },
    {
      "buffer": 0,
      "byteLength": 207828,
      "byteOffset": 78776,
      "name": "floatBufferViews",
      "target": 34963
    },
    {
      "buffer": 0,
      "byteLength": 78776,
      "byteOffset": 286604,
      "byteStride": 8,
      "name": "floatBufferViews",
      "target": 34962
    },
    {
      "buffer": 0,
      "byteLength": 236328,
      "byteOffset": 365380,
      "byteStride": 12,
      "name": "floatBufferViews",
      "target": 34962
    },
    {
      "buffer": 0,
      "byteLength": 315104,
      "byteOffset": 601708,
      "byteStride": 16,
      "name": "floatBufferViews",
      "target": 34962
    },
    {
      "buffer": 0,
      "byteLength": 7296,
      "byteOffset": 916812,
      "name": "floatBufferViews"
    }
  ],
  "buffers": [
    {
      "byteLength": 924108,
      "uri": "scene.bin"
    }
  ],
  "extensionsUsed": [
    "KHR_materials_specular"
  ],
  "images": [
    {
      "uri": "textures/zombie_scientist_body_baseColor.png"
    },
    {
      "uri": "textures/zombie_scientist_body_metallicRoughness.png"
    },
    {
      "uri": "textures/zombie_scientist_body_normal.png"
    },
    {
      "uri": "textures/zombie_scientist_body_specularf0.png"
    },
    {
      "uri": "textures/zombie_scientist_legs_baseColor.png"
    },
    {
      "uri": "textures/zombie_scientist_legs_normal.png"
    },
    {
      "uri": "textures/zombie_scientist_head_baseColor.png"
    },
    {
      "uri": "textures/zombie_scientist_head_normal.png"
    },
    {
      "uri": "textures/zombie_scientist_eyes_baseColor.png"
    },
    {
      "uri": "textures/zombie_scientist_eyes_normal.png"
    }
  ],
  "materials": [
    {
      "doubleSided": true,
      "extensions": {
        "KHR_materials_specular": {
          "specularColorFactor": [
            1.0,
            1.0,
            1.0
          ],
          "specularFactor": 1.0,
          "specularTexture": {
            "index": 3
          }
        }
      },
      "name": "zombie_scientist_body",
      "normalTexture": {
        "index": 2
      },
      "pbrMetallicRoughness": {
        "baseColorTexture": {
          "index": 0
        },
        "metallicRoughnessTexture": {
          "index": 1
        }
      }
    },
    {
      "doubleSided": true,
      "extensions": {
        "KHR_materials_specular": {
          "specularColorFactor": [
            1.0,
            1.0,
            1.0
          ],
          "specularFactor": 1.0
        }
      },
      "name": "zombie_scientist_legs",
      "normalTexture": {
        "index": 5
      },
      "pbrMetallicRoughness": {
        "baseColorTexture": {
          "index": 4
        },
        "metallicRoughnessTexture": {
          "index": 1
        }
      }
    },
    {
      "doubleSided": true,
      "extensions": {
        "KHR_materials_specular": {
          "specularColorFactor": [
            1.0,
            1.0,
            1.0
          ],
          "specularFactor": 1.0
        }
      },
      "name": "zombie_scientist_head",
      "normalTexture": {
        "index": 7
      },
      "pbrMetallicRoughness": {
        "baseColorTexture": {
          "index": 6
        },
        "metallicRoughnessTexture": {
          "index": 1
        }
      }
    },
    {
      "doubleSided": true,
      "extensions": {
        "KHR_materials_specular": {
          "specularColorFactor": [
            1.0,
            1.0,
            1.0
          ],
          "specularFactor": 1.0
        }
      },
      "name": "zombie_scientist_eyes",
      "normalTexture": {
        "index": 9
      },
      "pbrMetallicRoughness": {
        "baseColorTexture": {
          "index": 8
        },
        "metallicRoughnessTexture": {
          "index": 1
        }
      }
    }
  ],
  "meshes": [
    {
      "name": "Object_0",
      "primitives": [
        {
          "attributes": {
            "JOINTS_0": 21,
            "NORMAL": 1,
            "POSITION": 0,
            "TANGENT": 2,
            "TEXCOORD_0": 3,
            "TEXCOORD_1": 3,
            "TEXCOORD_2": 3,
            "TEXCOORD_3": 3,
            "WEIGHTS_0": 22
          },
          "indices": 4,
          "material": 0,
          "mode": 4
        }
      ]
    },
    {
      "name": "Object_1",
      "primitives": [
        {
          "attributes": {
            "JOINTS_0": 23,
            "NORMAL": 6,
            "POSITION": 5,
            "TANGENT": 7,
            "TEXCOORD_0": 8,
            "TEXCOORD_1": 8,
            "TEXCOORD_2": 8,
            "TEXCOORD_3": 8,
            "WEIGHTS_0": 24
          },
          "indices": 9,
          "material": 1,
          "mode": 4
        }
      ]
    },
    {
      "name": "Object_2",
      "primitives": [
        {
          "attributes": {
            "JOINTS_0": 25,
            "NORMAL": 11,
            "POSITION": 10,
            "TANGENT": 12,
            "TEXCOORD_0": 13,
            "TEXCOORD_1": 13,
            "TEXCOORD_2": 13,
            "TEXCOORD_3": 13,
            "WEIGHTS_0": 26
          },
          "indices": 14,
          "material": 2,
          "mode": 4
        }
      ]
    },
    {
      "name": "Object_3",
      "primitives": [
        {
          "attributes": {
            "JOINTS_0": 27,
            "NORMAL": 16,
            "POSITION": 15,
            "TANGENT": 17,
            "TEXCOORD_0": 18,
            "TEXCOORD_1": 18,
            "TEXCOORD_2": 18,
            "TEXCOORD_3": 18,
            "WEIGHTS_0": 28
          },
          "indices": 19,
          "material": 3,
          "mode": 4
        }
      ]
    }
  ],
  "nodes": [
    {
      "children": [
        1
      ],
      "matrix": [
        1.0,
        0.0,
        0.0,
        0.0,
        0.0,
        2.220446049250313e-16,
        -1.0,
        0.0,
        0.0,
        1.0,
        2.220446049250313e-16,
        0.0,
        0.0,
        0.0,
        0.0,
        1.0
      ],
      "name": "Sketchfab_model"
    },
    {
      "children": [
        2
      ],
      "name": "root"
    },
    {
      "children": [
        3
      ],
      "matrix": [
        1.0,
        0.0,
        0.0,
        0.0,
        0.0,
        2.220446049250313e-16,
        1.0,
        0.0,
        0.0,
        -1.0,
        2.220446049250313e-16,
        0.0,
        0.0,
        0.0,
        0.0,
        1.0
      ],
      "name": "GLTF_SceneRootNode"
    },
    {
      "children": [
        4
      ],
      "name": "zombie_ARM_114"
    },
    {
      "children": [
        5,
        7,
        8,
        9,
        10,
        6
      ],
      "name": "GLTF_created_0"
    },
    {
      "children": [
        11
      ],
      "name": "GLTF_created_0_rootJoint"
    },
    {
      "name": "zombie_scientist.smd_113"
    },
    {
      "mesh": 0,
      "name": "Object_7",
      "skin": 0
    },
    {
      "mesh": 1,
      "name": "Object_8",
      "skin": 0
    },
    {
      "mesh": 2,
      "name": "Object_9",
      "skin": 0
    },
    {
      "mesh": 3,
      "name": "Object_10",
      "skin": 0
    },
    {
      "children": [
        12,
        21,
        30
      ],
      "name": "ValveBiped.Bip01_Pelvis_112",
      "rotation": [
        -1.8106969434938947e-07,
        4.999999987376214e-07,
        7.301970172176458e-14,
        1.0
      ],
      "translation": [
        0.0,
        0.7212197780609131,
        0.0041181910783052444
      ]
    },
    {
      "children": [
        13,
        19,
        20
      ],
      "name": "ValveBiped.Bip01_L_Thigh_8",
      "rotation": [
        -0.5035882592201233,
        0.4965481460094452,
        -0.5023240447044373,
        0.49750325083732605
      ],
      "scale": [
        1.0,
        0.9999999403953552,
        0.9999999403953552
      ],
      "translation": [
        0.0644669160246849,
        0.0005391225568018854,
        1.8504408672015416e-08
      ]
    },
    {
      "children": [
        14,
        17,
        18
      ],
      "name": "ValveBiped.Bip01_L_Calf_5",
      "rotation": [
        -0.0024685682728886604,
        -7.72938264503864e-08,
        0.0004411691625136882,
        0.9999968409538269
      ],
      "scale": [
        0.9999999403953552,
        1.0,
        0.9999999403953552
      ],
      "translation": [
        0.33250692486763,
        -4.3310683395247906e-07,
        3.241189006075729e-08
      ]
    },
    {
      "children": [
        15
      ],
      "name": "ValveBiped.Bip01_L_Foot_2",
      "rotation": [
        0.007987510412931442,
        0.005422270391136408,
        -0.4804978370666504,
        0.8769428133964539
      ],
      "scale": [
        0.9999999403953552,
        0.9999999403953552,
        1.0
      ],
      "translation": [
        0.3168722689151764,
        1.9499566406011581e-07,
        -9.829818736761808e-09
      ]
    },
    {
      "children": [
        16
      ],
      "name": "ValveBiped.Bip01_L_Toe0_1",
      "rotation": [
        -0.0009831077186390758,
        -0.001533442991785705,
        -0.2741275131702423,
        0.9616917371749878
      ],
      "scale": [
        0.9999999403953552,
        1.0,
        1.0
      ],
      "translation": [
        0.10566988587379456,
        -0.0199220459908247,
        0.0018602317431941628
      ]
    },
    {
      "name": "leg_toe_lf_0",
      "rotation": [
        -0.5857640504837036,
        0.39219143986701965,
        -0.39523056149482727,
        0.588947594165802
      ],
      "scale": [
        1.0,
        1.0,
        0.9999999403953552
      ],
      "translation": [
        0.065936379134655,
        0.024536438286304474,
        0.0010143150575459003
      ]
    },
    {
      "name": "rollleglower_pin3_lf_3",
      "rotation": [
        -0.48856163024902344,
        0.514103353023529,
        -0.5067404508590698,
        0.4901219308376312
      ],
      "scale": [
        0.9999998211860657,
        0.9999996423721313,
        0.9999997615814209
      ],
      "translation": [
        0.31687232851982117,
        1.9470462575554848e-07,
        4.9367372412234545e-09
      ]
    },
    {
      "name": "rollleglower_pin2_lf_4",
      "rotation": [
        -0.48850902915000916,
        0.5141622424125671,
        -0.5067911148071289,
        0.49006012082099915
      ],
      "scale": [
        0.9999998807907104,
        0.9999999403953552,
        1.0
      ],
      "translation": [
        0.15843617916107178,
        9.895302355289459e-08,
        5.918991519138217e-09
      ]
    },
    {
      "name": "rolllegupper_pin2_lf_6",
      "rotation": [
        -0.4893780052661896,
        0.5132361650466919,
        -0.5083873271942139,
        0.48850804567337036
      ],
      "scale": [
        1.0,
        0.9999999403953552,
        0.9999999403953552
      ],
      "translation": [
        0.16625356674194336,
        -2.3772736312821507e-07,
        -1.3188355296733789e-08
      ]
    },
    {
      "name": "rolllegupper_pin1_lf_7",
      "rotation": [
        -0.48937922716140747,
        0.5132333040237427,
        -0.5083858370780945,
        0.48851147294044495
      ],
      "scale": [
        1.0,
        0.9999998807907104,
        0.9999999403953552
      ],
      "translation": [
        -1.3353565009310842e-07,
        -2.3119355319067836e-09,
        -2.093941020575585e-08
      ]
    },
    {
      "children": [
        22,
        28,
        29
      ],
      "name": "ValveBiped.Bip01_R_Thigh_17",
      "rotation": [
        -0.500974714756012,
        0.49886929988861084,
        -0.49658918380737305,
        0.5035403966903687
      ],
      "scale": [
        0.9999998807907104,
        0.9999997615814209,
        0.9999998211860657
      ],
      "translation": [
        -0.06446689367294312,
        0.0005391225568018854,
        -1.915979197519846e-08
      ]
    },
    {
      "children": [
        23,
        26,
        27
      ],
      "name": "ValveBiped.Bip01_R_Calf_14",
      "rotation": [
        0.00243988330475986,
        -4.147042034219339e-07,
        0.0004466440586838871,
        0.9999969601631165
      ],
      "scale": [
        0.9999999403953552,
        0.9999999403953552,
        1.0
      ],
      "translation": [
        0.3349107801914215,
        1.0969397408189252e-06,
        1.7905676941154525e-11
      ]
    },
    {
      "children": [
        24
      ],
      "name": "ValveBiped.Bip01_R_Foot_11",
      "rotation": [
        -0.005605539306998253,
        -0.008015356957912445,
        -0.48041197657585144,
        0.876988410949707
      ],
      "scale": [
        0.9999999403953552,
        0.9999998807907104,
        0.9999998807907104
      ],
      "translation": [
        0.3191693127155304,
        -2.4436158128082752e-06,
        -1.5828391042305157e-08
      ]
    },
    {
      "children": [
        25
      ],
      "name": "ValveBiped.Bip01_R_Toe0_10",
      "rotation": [
        -0.028495116159319878,
        0.01150902733206749,
        -0.27422723174095154,
        0.9611737728118896
      ],
      "scale": [
        0.9999999403953552,
        0.9999998807907104,
        1.0
      ],
      "translation": [
        0.10535350441932678,
        -0.02165422961115837,
        -0.0019598554354161024
      ]
    },
    {
      "name": "leg_toe_rt_9",
      "rotation": [
        -0.3928264081478119,
        -0.5881819725036621,
        0.5694616436958313,
        0.4188590347766876
      ],
      "scale": [
        0.9999999403953552,
        1.0000001192092896,
        0.9999999403953552
      ],
      "translation": [
        0.06617535650730133,
        0.02393939532339573,
        0.0006143408245407045
      ]
    },
    {
      "name": "rollleglower_pin3_rt_12",
      "rotation": [
        -0.49724701046943665,
        -0.49992939829826355,
        0.5005860328674316,
        0.5022246837615967
      ],
      "scale": [
        1.0,
        1.0,
        0.9999999403953552
      ],
      "translation": [
        0.3191693127155304,
        -2.4230394046753645e-06,
        2.6918769435724244e-09
      ]
    },
    {
      "name": "rollleglower_pin2_rt_13",
      "rotation": [
        -0.49728304147720337,
        -0.49989479780197144,
        0.5005499720573425,
        0.5022594332695007
      ],
      "translation": [
        0.15958455204963684,
        -1.2122909538447857e-06,
        -2.1062987798359245e-08
      ]
    },
    {
      "name": "rolllegupper_pin2_rt_15",
      "rotation": [
        -0.49571701884269714,
        -0.5014519691467285,
        0.49966809153556824,
        0.5031325817108154
      ],
      "scale": [
        1.0,
        1.0,
        0.9999999403953552
      ],
      "translation": [
        0.16745547950267792,
        5.474867066368461e-07,
        6.002665031701326e-10
      ]
    },
    {
      "name": "rolllegupper_pin1_rt_16",
      "rotation": [
        -0.4957108497619629,
        -0.5014539361000061,
        0.49967435002326965,
        0.5031305551528931
      ],
      "scale": [
        1.0,
        1.0000001192092896,
        1.0000001192092896
      ],
      "translation": [
        3.7601785152219236e-07,
        -2.2737367544323206e-10,
        -2.6292241273040418e-08
      ]
    },
    {
      "children": [
        31
      ],
      "name": "ValveBiped.Bip01_Spine_111",
      "rotation": [
        0.47796884179115295,
        0.521099865436554,
        0.4779668152332306,
        0.5211030840873718
      ],
      "scale": [
        0.9999999403953552,
        0.9999998807907104,
        0.9999998807907104
      ],
      "translation": [
        -2.0306937284064047e-16,
        0.06861990690231323,
        -5.115339263284113e-10
      ]
    },
    {
      "children": [
        32
      ],
      "name": "ValveBiped.Bip01_Spine1_110",
      "rotation": [
        4.256455188311747e-09,
        5.098927431390621e-07,
        -0.01461583562195301,
        0.9998931884765625
      ],
      "translation": [
        0.06836439669132233,
        0.005914150271564722,
        -3.8336565921781585e-07
      ]
    },
    {
      "children": [
        33
      ],
      "name": "ValveBiped.Bip01_Spine2_109",
      "rotation": [
        1.1033507689717226e-06,
        -2.190782288380433e-05,
        0.05014369264245033,
        0.9987420439720154
      ],
      "scale": [
        0.9999999403953552,
        1.0,
        1.0
      ],
      "translation": [
        0.06816262006759644,
        0.007909762673079967,
        -2.8550363140311674e-07
      ]
    },
    {
      "children": [
        34,
        69,
        96,
        123
      ],
      "name": "ValveBiped.Bip01_Spine4_108",
      "rotation": [
        1.9654748939501587e-06,
        2.6258927391609177e-05,
        0.09689785540103912,
        0.9952943325042725
      ],
      "scale": [
        0.9999999403953552,
        1.0,
        1.0
      ],
      "translation": [
        0.06861191987991333,
        0.0010427376255393028,
        -3.315203912279685e-06
      ]
    },
    {
      "children": [
        35
      ],
      "name": "ValveBiped.Bip01_Neck1_52",
      "rotation": [
        0.982661247253418,
        0.18541017174720764,
        1.0383384505985305e-05,
        3.0133102768559183e-07
      ],
      "scale": [
        1.0000005960464478,
        1.0,
        1.0
      ],
      "translation": [
        0.16842183470726013,
        -0.021903134882450104,
        7.961727419569797e-07
      ]
    },
    {
      "children": [
        36,
        46,
        47,
        48,
        49,
        50,
        51,
        52,
        53,
        54,
        55,
        56,
        57,
        58,
        59,
        60,
        61,
        62,
        63,
        64,
        65,
        66,
        67,
        68
      ],
      "name": "ValveBiped.Bip01_Head1_51",
      "rotation": [
        -3.049973656743532e-06,
        6.556523203471443e-06,
        0.1507953703403473,
        0.9885650277137756
      ],
      "scale": [
        1.0,
        1.0000001192092896,
        1.0000001192092896
      ],
      "translation": [
        0.05764998123049736,
        0.024762630462646484,
        9.589582532498753e-07
      ]
    },
    {
      "children": [
        37,
        40,
        41,
        42,
        43,
        44,
        45
      ],
      "name": "jaw_part01_md_27",
      "rotation": [
        -0.07413987815380096,
        -0.7032124400138855,
        0.7032082676887512,
        0.07411926239728928
      ],
      "scale": [
        0.9999999403953552,
        1.0,
        0.9999999403953552
      ],
      "translation": [
        0.013723921030759811,
        -0.010654229670763016,
        3.6240760437067365e-07
      ]
    },
    {
      "children": [
        38
      ],
      "name": "tongue_part01_md_20",
      "rotation": [
        -6.890431780703921e-09,
        -0.2818833291530609,
        -2.345305460949021e-08,
        0.9594486951828003
      ],
      "scale": [
        1.0,
        1.0,
        1.0000001192092896
      ],
      "translation": [
        0.00881802849471569,
        1.862654031015154e-09,
        0.03834417089819908
      ]
    },
    {
      "children": [
        39
      ],
      "name": "tongue_part02_md_19",
      "rotation": [
        -5.812320846843022e-09,
        0.27174851298332214,
        2.0583756921155327e-08,
        0.9623683094978333
      ],
      "translation": [
        -2.644956111907959e-07,
        -1.8626493680784506e-09,
        0.01683536171913147
      ]
    },
    {
      "name": "tongue_part03_md_18",
      "rotation": [
        1.3322676295501878e-15,
        -7.450577044210149e-09,
        -1.2222072243162074e-08,
        1.0
      ],
      "translation": [
        1.601874828338623e-07,
        -1.8626398201604388e-09,
        0.011426076292991638
      ]
    },
    {
      "name": "teeth_part01_bd_21",
      "rotation": [
        0.5847587585449219,
        -5.7176091416977215e-08,
        0.8112072348594666,
        8.759077922064311e-15
      ],
      "translation": [
        -0.0007953941822052002,
        4.218847493575595e-15,
        0.059866733849048615
      ]
    },
    {
      "name": "lips_part02_lf_22",
      "rotation": [
        -0.6711456775665283,
        -0.6828197240829468,
        -0.20295439660549164,
        0.20525647699832916
      ],
      "scale": [
        0.9999999403953552,
        0.9999998211860657,
        0.9999999403953552
      ],
      "translation": [
        -0.006827455013990402,
        0.02488785609602928,
        0.05803658068180084
      ]
    },
    {
      "name": "lips_part02_rt_23",
      "rotation": [
        -0.2029597908258438,
        0.2052524834871292,
        0.6711441278457642,
        0.6828208565711975
      ],
      "scale": [
        1.0000001192092896,
        1.0,
        1.0000001192092896
      ],
      "translation": [
        -0.006827753037214279,
        -0.02488785609602928,
        0.05803658068180084
      ]
    },
    {
      "name": "lips_part03_rt_24",
      "rotation": [
        -0.6115025877952576,
        -0.17772303521633148,
        0.6585897207260132,
        0.40092232823371887
      ],
      "scale": [
        1.0,
        1.0,
        0.9999999403953552
      ],
      "translation": [
        0.007489400450140238,
        -0.016335513442754745,
        0.06773614883422852
      ]
    },
    {
      "name": "lips_part02_md_25",
      "rotation": [
        -0.5276241302490234,
        -5.158897664614415e-08,
        -0.8494779467582703,
        1.8820043789992587e-14
      ],
      "translation": [
        0.008834846317768097,
        -1.862639376071229e-09,
        0.07757052034139633
      ]
    },
    {
      "name": "lips_part03_lf_26",
      "rotation": [
        0.6586025357246399,
        0.40091922879219055,
        0.6114878058433533,
        0.17773379385471344
      ],
      "scale": [
        1.0,
        1.000000238418579,
        1.000000238418579
      ],
      "translation": [
        0.007489965762943029,
        0.01633554697036743,
        0.06773620843887329
      ]
    },
    {
      "name": "tpeyelid_part01_lf_28",
      "rotation": [
        0.6601545810699463,
        0.2533392310142517,
        -0.6601747274398804,
        0.25334683060646057
      ],
      "scale": [
        1.0000001192092896,
        1.0,
        1.0
      ],
      "translation": [
        0.06244133040308952,
        -0.05373527854681015,
        -0.02427484653890133
      ]
    },
    {
      "name": "tpeyelid_part01_rt_29",
      "rotation": [
        0.6595925092697144,
        0.2548068165779114,
        -0.6596072912216187,
        0.2548125982284546
      ],
      "scale": [
        0.9999996423721313,
        0.9999998211860657,
        0.9999999403953552
      ],
      "translation": [
        0.062440015375614166,
        -0.0537353977560997,
        0.024278145283460617
      ]
    },
    {
      "name": "lips_part01_md_30",
      "rotation": [
        -0.6265017986297607,
        0.3278449475765228,
        -0.3278617560863495,
        0.6265140771865845
      ],
      "scale": [
        1.0,
        1.0,
        0.9999999403953552
      ],
      "translation": [
        0.032530829310417175,
        -0.08513395488262177,
        7.058560527184454e-07
      ]
    },
    {
      "name": "lips_part01_rt_31",
      "rotation": [
        0.5369866490364075,
        0.5540242791175842,
        -0.6350835561752319,
        0.037031855434179306
      ],
      "scale": [
        1.0,
        0.9999999403953552,
        0.9999999403953552
      ],
      "translation": [
        0.02687765099108219,
        -0.07780693471431732,
        0.018150346353650093
      ]
    },
    {
      "name": "lips_part01_lf_32",
      "rotation": [
        -0.5540217161178589,
        0.5369684100151062,
        0.03701839596033096,
        0.6351019740104675
      ],
      "scale": [
        0.9999999403953552,
        0.9999999403953552,
        0.9999999403953552
      ],
      "translation": [
        0.02687874622642994,
        -0.07780691981315613,
        -0.018149204552173615
      ]
    },
    {
      "name": "cheek_part02_lf_33",
      "rotation": [
        -0.39504241943359375,
        0.5615308284759521,
        -0.3295702040195465,
        0.6480804085731506
      ],
      "scale": [
        0.9999999403953552,
        0.9999999403953552,
        0.9999997615814209
      ],
      "translation": [
        0.03988945484161377,
        -0.06323651969432831,
        -0.03321247920393944
      ]
    },
    {
      "name": "cheek_part01_lf_34",
      "rotation": [
        -0.6931964159011841,
        0.5660346746444702,
        -0.21253521740436554,
        0.3923165202140808
      ],
      "scale": [
        1.0,
        1.000000238418579,
        1.0
      ],
      "translation": [
        0.04761440306901932,
        -0.06443465501070023,
        -0.013810239732265472
      ]
    },
    {
      "name": "cheek_part01_rt_35",
      "rotation": [
        -0.5660451054573059,
        -0.6932036280632019,
        0.39230072498321533,
        0.2125132977962494
      ],
      "scale": [
        0.9999998211860657,
        0.9999998211860657,
        0.9999999403953552
      ],
      "translation": [
        0.04761346057057381,
        -0.06443473696708679,
        0.013812607154250145
      ]
    },
    {
      "name": "cheek_part02_rt_36",
      "rotation": [
        -0.5615642666816711,
        -0.39505982398986816,
        0.6480462551116943,
        0.32955947518348694
      ],
      "scale": [
        0.9999999403953552,
        1.0,
        0.9999998807907104
      ],
      "translation": [
        0.03988773748278618,
        -0.06323669850826263,
        0.033214423805475235
      ]
    },
    {
      "name": "brow_part03_rt_37",
      "rotation": [
        0.6622270345687866,
        0.4650472402572632,
        -0.572369396686554,
        0.13258850574493408
      ],
      "scale": [
        0.9999999403953552,
        1.0,
        0.9999999403953552
      ],
      "translation": [
        0.06633759289979935,
        -0.0554761067032814,
        0.04358762130141258
      ]
    },
    {
      "name": "brow_part02_rt_38",
      "rotation": [
        -0.5867332816123962,
        -0.47827014327049255,
        0.6143589615821838,
        0.2226315438747406
      ],
      "scale": [
        0.9999999403953552,
        1.0,
        0.9999999403953552
      ],
      "translation": [
        0.07591289281845093,
        -0.06414999812841415,
        0.0334639810025692
      ]
    },
    {
      "name": "brow_part01_rt_39",
      "rotation": [
        -0.4440263509750366,
        -0.5503230094909668,
        0.5659916400909424,
        0.4238380193710327
      ],
      "scale": [
        0.9999999403953552,
        0.9999999403953552,
        0.9999998807907104
      ],
      "translation": [
        0.07613574713468552,
        -0.06847570836544037,
        0.016585467383265495
      ]
    },
    {
      "name": "brow_part01_md_40",
      "rotation": [
        -0.5582414865493774,
        0.4339950382709503,
        -0.4340106248855591,
        0.5582557916641235
      ],
      "scale": [
        0.9999999403953552,
        1.0,
        0.9999999403953552
      ],
      "translation": [
        0.06790860742330551,
        -0.06753302365541458,
        1.7548157984492718e-06
      ]
    },
    {
      "name": "brow_part01_lf_41",
      "rotation": [
        -0.5503076314926147,
        0.44401228427886963,
        -0.42385098338127136,
        0.5660080313682556
      ],
      "scale": [
        1.0,
        1.0000001192092896,
        1.0000001192092896
      ],
      "translation": [
        0.07613660395145416,
        -0.06847561150789261,
        -0.016581444069743156
      ]
    },
    {
      "name": "brow_part02_lf_42",
      "rotation": [
        -0.4782613217830658,
        0.5867120027542114,
        -0.2226356565952301,
        0.6143847107887268
      ],
      "scale": [
        0.9999998807907104,
        0.9999999403953552,
        0.9999999403953552
      ],
      "translation": [
        0.07591451704502106,
        -0.06414992362260818,
        -0.03345993533730507
      ]
    },
    {
      "name": "brow_part03_lf_43",
      "rotation": [
        -0.46504753828048706,
        0.6622079610824585,
        0.1325802057981491,
        0.5723931789398193
      ],
      "scale": [
        1.0,
        0.9999998807907104,
        0.9999998807907104
      ],
      "translation": [
        0.06634005904197693,
        -0.0554758757352829,
        -0.043584082275629044
      ]
    },
    {
      "name": "puff_part01_lf_44",
      "rotation": [
        -0.1303824484348297,
        0.6945371627807617,
        -0.2326376587152481,
        0.6682053208351135
      ],
      "scale": [
        0.9999999403953552,
        0.9999998211860657,
        0.9999997615814209
      ],
      "translation": [
        0.009164590388536453,
        -0.050150759518146515,
        -0.039739567786455154
      ]
    },
    {
      "name": "puff_part01_rt_45",
      "rotation": [
        -0.6945582032203674,
        -0.13040249049663544,
        0.6681826710700989,
        0.23262853920459747
      ],
      "scale": [
        0.9999998807907104,
        0.9999998807907104,
        0.9999994039535522
      ],
      "translation": [
        0.009240688756108284,
        -0.04995600879192352,
        0.03987883776426315
      ]
    },
    {
      "name": "eye_result_rt_46",
      "rotation": [
        -0.7016282677650452,
        -0.08786427974700928,
        0.08784318715333939,
        0.7016275525093079
      ],
      "scale": [
        0.9999999403953552,
        1.0,
        0.9999999403953552
      ],
      "translation": [
        0.058814480900764465,
        -0.04961752891540527,
        0.0242780689150095
      ]
    },
    {
      "name": "eye_result_lf_47",
      "rotation": [
        0.7016273736953735,
        0.0878460705280304,
        0.08786693215370178,
        0.701627790927887
      ],
      "scale": [
        0.9999999403953552,
        1.0,
        0.9999999403953552
      ],
      "translation": [
        0.05881568416953087,
        -0.049617454409599304,
        -0.02427493967115879
      ]
    },
    {
      "name": "ear_part01_lf_48",
      "rotation": [
        -0.7493229508399963,
        0.27929821610450745,
        -0.34383246302604675,
        0.4922264814376831
      ],
      "scale": [
        0.9999998807907104,
        1.0,
        0.9999999403953552
      ],
      "translation": [
        0.029881902039051056,
        0.005665319040417671,
        -0.05448944494128227
      ]
    },
    {
      "name": "ear_part01_rt_49",
      "rotation": [
        -0.2793206572532654,
        -0.7493405342102051,
        0.4922078251838684,
        0.34380263090133667
      ],
      "scale": [
        0.9999998807907104,
        0.9999997019767761,
        0.9999998807907104
      ],
      "translation": [
        0.029879175126552582,
        0.005665045231580734,
        0.05449119955301285
      ]
    },
    {
      "name": "teeth_part01_tp_50",
      "rotation": [
        -0.5270937085151672,
        0.471335768699646,
        -0.47134965658187866,
        0.5271095633506775
      ],
      "scale": [
        0.9999999403953552,
        1.0,
        0.9999999403953552
      ],
      "translation": [
        0.020264578983187675,
        -0.06732682138681412,
        4.0065836515168485e-07
      ]
    },
    {
      "children": [
        70
      ],
      "name": "ValveBiped.Bip01_L_Clavicle_79",
      "rotation": [
        -0.42546743154525757,
        -0.5635367035865784,
        -0.6315180659294128,
        0.32029497623443604
      ],
      "scale": [
        1.0,
        1.0,
        0.9999999403953552
      ],
      "translation": [
        0.0894784927368164,
        -0.026276035234332085,
        0.028874730691313744
      ]
    },
    {
      "children": [
        71,
        94,
        95
      ],
      "name": "ValveBiped.Bip01_L_UpperArm_78",
      "rotation": [
        -0.688981831073761,
        -0.16270402073860168,
        0.15580548346042633,
        0.6888803839683533
      ],
      "scale": [
        1.0,
        0.9999998807907104,
        1.0
      ],
      "translation": [
        0.10220355540513992,
        0.04996852949261665,
        0.0003192586882505566
      ]
    },
    {
      "children": [
        72,
        92,
        93
      ],
      "name": "ValveBiped.Bip01_L_Forearm_75",
      "rotation": [
        -9.976351429941133e-05,
        -1.4316493661681307e-06,
        -0.0007497518672607839,
        0.9999997615814209
      ],
      "scale": [
        1.0,
        1.0,
        1.0000001192092896
      ],
      "translation": [
        0.18523170053958893,
        7.788185030221939e-07,
        -3.64932475349633e-08
      ]
    },
    {
      "children": [
        73,
        76,
        79,
        82,
        85,
        88,
        89,
        90,
        91
      ],
      "name": "ValveBiped.Bip01_L_Hand_72",
      "rotation": [
        0.7079712748527527,
        0.01007175724953413,
        0.08521069586277008,
        0.7010095119476318
      ],
      "scale": [
        1.0,
        0.9999999403953552,
        1.0
      ],
      "translation": [
        0.1902894824743271,
        1.775333657860756e-07,
        -1.7199613466800656e-07
      ]
    },
    {
      "children": [
        74
      ],
      "name": "ValveBiped.Bip01_L_Finger2_55",
      "rotation": [
        0.018907606601715088,
        -0.08322350680828094,
        -0.08526594191789627,
        0.9926964044570923
      ],
      "scale": [
        1.0,
        1.0000001192092896,
        1.0
      ],
      "translation": [
        0.08650702983140945,
        -0.007734521292150021,
        0.012890467420220375
      ]
    },
    {
      "children": [
        75
      ],
      "name": "ValveBiped.Bip01_L_Finger21_54",
      "rotation": [
        -0.016652002930641174,
        0.0009752900223247707,
        -0.0192374587059021,
        0.9996758103370667
      ],
      "scale": [
        0.9999998807907104,
        1.0,
        1.0
      ],
      "translation": [
        0.0389082245528698,
        2.340912033105269e-07,
        -8.614733815193176e-09
      ]
    },
    {
      "name": "ValveBiped.Bip01_L_Finger22_53",
      "rotation": [
        0.00016611124738119543,
        0.0015292403986677527,
        -0.10798472166061401,
        0.9941514134407043
      ],
      "translation": [
        0.026726849377155304,
        -1.200842234538868e-07,
        -6.984919309616089e-10
      ]
    },
    {
      "children": [
        77
      ],
      "name": "ValveBiped.Bip01_L_Finger1_58",
      "rotation": [
        0.13409553468227386,
        -0.16022935509681702,
        -0.09532254934310913,
        0.9732720851898193
      ],
      "scale": [
        0.9999999403953552,
        1.0000001192092896,
        1.0
      ],
      "translation": [
        0.0828348696231842,
        -0.009615779854357243,
        0.03413444757461548
      ]
    },
    {
      "children": [
        78
      ],
      "name": "ValveBiped.Bip01_L_Finger11_57",
      "rotation": [
        -0.018103547394275665,
        -0.002038532868027687,
        -0.019209779798984528,
        0.9996495246887207
      ],
      "scale": [
        0.9999998807907104,
        1.0,
        0.9999999403953552
      ],
      "translation": [
        0.034951142966747284,
        -2.1420419216156006e-08,
        5.774199962615967e-08
      ]
    },
    {
      "name": "ValveBiped.Bip01_L_Finger12_56",
      "rotation": [
        0.00015772163169458508,
        0.0012867124751210213,
        -0.12186121195554733,
        0.9925463199615479
      ],
      "translation": [
        0.024086011573672295,
        -4.563480615615845e-08,
        1.4901161193847656e-08
      ]
    },
    {
      "children": [
        80
      ],
      "name": "ValveBiped.Bip01_L_Finger0_61",
      "rotation": [
        -0.6182414293289185,
        -0.20975980162620544,
        -0.5213003754615784,
        0.5495674014091492
      ],
      "scale": [
        1.0000001192092896,
        1.0,
        1.0000001192092896
      ],
      "translation": [
        0.025612177327275276,
        -0.013160791248083115,
        0.02048475109040737
      ]
    },
    {
      "children": [
        81
      ],
      "name": "ValveBiped.Bip01_L_Finger01_60",
      "rotation": [
        -0.08588460832834244,
        -0.0604579783976078,
        0.20424191653728485,
        0.9732697010040283
      ],
      "scale": [
        1.0,
        1.0000001192092896,
        1.0
      ],
      "translation": [
        0.03702300414443016,
        7.450580596923828e-09,
        -2.1141022443771362e-07
      ]
    },
    {
      "name": "ValveBiped.Bip01_L_Finger02_59",
      "rotation": [
        -0.0010063491063192487,
        0.005541516467928886,
        0.18044131994247437,
        0.9835696220397949
      ],
      "scale": [
        1.0,
        1.0,
        0.9999999403953552
      ],
      "translation": [
        0.030719544738531113,
        2.2351741790771484e-07,
        -2.71480530500412e-07
      ]
    },
    {
      "children": [
        83
      ],
      "name": "ValveBiped.Bip01_L_Finger4_64",
      "rotation": [
        -0.21617788076400757,
        0.18311111629009247,
        -0.05340045690536499,
        0.9575415849685669
      ],
      "scale": [
        1.0,
        1.0000001192092896,
        1.0
      ],
      "translation": [
        0.07926486432552338,
        -0.01414280105382204,
        -0.025544174015522003
      ]
    },
    {
      "children": [
        84
      ],
      "name": "ValveBiped.Bip01_L_Finger41_63",
      "rotation": [
        -0.008936279453337193,
        0.012749495916068554,
        -0.03620433807373047,
        0.9992231130599976
      ],
      "scale": [
        1.0,
        0.9999999403953552,
        1.0
      ],
      "translation": [
        0.03181254118680954,
        -1.1734664440155029e-07,
        -1.30385160446167e-07
      ]
    },
    {
      "name": "ValveBiped.Bip01_L_Finger42_62",
      "rotation": [
        0.00030173134291544557,
        0.002471247222274542,
        -0.12183482199907303,
        0.9925472736358643
      ],
      "scale": [
        1.0,
        0.9999999403953552,
        0.9999999403953552
      ],
      "translation": [
        0.018223794177174568,
        8.754432201385498e-08,
        -3.3527612686157227e-08
      ]
    },
    {
      "children": [
        86
      ],
      "name": "ValveBiped.Bip01_L_Finger3_67",
      "rotation": [
        -0.0910525992512703,
        0.03851386904716492,
        -0.07253912836313248,
        0.9924536347389221
      ],
      "translation": [
        0.08695826679468155,
        -0.009416035376489162,
        -0.007218330632895231
      ]
    },
    {
      "children": [
        87
      ],
      "name": "ValveBiped.Bip01_L_Finger31_66",
      "rotation": [
        -0.0027503331657499075,
        0.007044132798910141,
        -0.04146703705191612,
        0.9991113543510437
      ],
      "scale": [
        0.9999998211860657,
        0.9999999403953552,
        0.9999999403953552
      ],
      "translation": [
        0.03620796650648117,
        3.9068982005119324e-07,
        -2.7939677238464355e-08
      ]
    },
    {
      "name": "ValveBiped.Bip01_L_Finger32_65",
      "rotation": [
        0.0007853936403989792,
        0.0035930145531892776,
        -0.21374952793121338,
        0.9768815636634827
      ],
      "scale": [
        1.0000001192092896,
        1.0,
        1.0
      ],
      "translation": [
        0.02369178645312786,
        9.313225746154785e-10,
        6.891787052154541e-08
      ]
    },
    {
      "name": "middle_part01_lf_68",
      "rotation": [
        0.0496956892311573,
        0.6519109606742859,
        -0.008833331987261772,
        0.7566137909889221
      ],
      "scale": [
        1.0000001192092896,
        1.0,
        1.0
      ],
      "translation": [
        -0.00033865918521769345,
        2.171218511648476e-07,
        0.0001009779516607523
      ]
    },
    {
      "name": "ring_part01_lf_69",
      "rotation": [
        0.037343546748161316,
        0.6936667561531067,
        -0.037047628313302994,
        0.7183727622032166
      ],
      "scale": [
        1.0,
        0.9999999403953552,
        1.0
      ],
      "translation": [
        0.0036318055354058743,
        -0.00048259631148539484,
        -0.00950341485440731
      ]
    },
    {
      "name": "pinky_part01_lf_70",
      "rotation": [
        0.05267028510570526,
        0.7311750054359436,
        -0.04852057620882988,
        0.6784207224845886
      ],
      "scale": [
        0.9999998807907104,
        0.9999997019767761,
        0.9999999403953552
      ],
      "translation": [
        0.0038689528591930866,
        -0.003264170605689287,
        -0.019829560071229935
      ]
    },
    {
      "name": "index_part01_lf_71",
      "rotation": [
        0.05279902368783951,
        0.6172165274620056,
        -0.011215811595320702,
        0.784939706325531
      ],
      "scale": [
        0.9999999403953552,
        0.9999999403953552,
        0.9999998807907104
      ],
      "translation": [
        -0.002350092399865389,
        -0.0007261413265950978,
        0.013494889251887798
      ]
    },
    {
      "name": "rollarmlower_pin2_lf_73",
      "rotation": [
        -0.5001195073127747,
        0.4998798668384552,
        -0.5001193881034851,
        0.49988117814064026
      ],
      "scale": [
        1.0,
        1.0000001192092896,
        1.0000001192092896
      ],
      "translation": [
        0.09514502435922623,
        8.800998330116272e-08,
        -2.910517196141882e-07
      ]
    },
    {
      "name": "rollarmlower_pin3_lf_74",
      "rotation": [
        -0.5001205205917358,
        0.49987947940826416,
        -0.5001183748245239,
        0.4998815953731537
      ],
      "scale": [
        1.0,
        1.0000001192092896,
        1.0000001192092896
      ],
      "translation": [
        0.19028954207897186,
        1.7764978110790253e-07,
        -2.9119132705091033e-07
      ]
    },
    {
      "name": "rollarmupper_pin1_lf_76",
      "rotation": [
        -0.5001722574234009,
        0.4998297691345215,
        -0.5001670718193054,
        0.4998309016227722
      ],
      "scale": [
        1.0,
        1.0,
        1.0000001192092896
      ],
      "translation": [
        -2.6957422960549593e-09,
        1.862645149230957e-09,
        -6.906343514856417e-07
      ]
    },
    {
      "name": "rollarmupper_pin2_lf_77",
      "rotation": [
        -0.5001698136329651,
        0.4998278021812439,
        -0.5001693964004517,
        0.4998328685760498
      ],
      "scale": [
        1.0,
        1.0,
        1.0000001192092896
      ],
      "translation": [
        0.09261589497327805,
        4.096655175089836e-07,
        -5.423435140983202e-07
      ]
    },
    {
      "children": [
        97
      ],
      "name": "ValveBiped.Bip01_R_Clavicle_106",
      "rotation": [
        0.4272766411304474,
        0.564119279384613,
        -0.630084753036499,
        0.319683313369751
      ],
      "scale": [
        0.9999998807907104,
        0.9999996423721313,
        0.9999998807907104
      ],
      "translation": [
        0.08947891741991043,
        -0.02627592720091343,
        -0.028873929753899574
      ]
    },
    {
      "children": [
        98,
        121,
        122
      ],
      "name": "ValveBiped.Bip01_R_UpperArm_105",
      "rotation": [
        0.6884055137634277,
        0.16036352515220642,
        0.1569911688566208,
        0.6897355318069458
      ],
      "scale": [
        0.9999999403953552,
        1.0,
        1.0000001192092896
      ],
      "translation": [
        0.10228810459375381,
        0.04979575052857399,
        0.0001808255328796804
      ]
    },
    {
      "children": [
        99,
        119,
        120
      ],
      "name": "ValveBiped.Bip01_R_Forearm_102",
      "rotation": [
        -0.00020985638548154384,
        1.0111317578775925e-06,
        -0.0007477959734387696,
        0.9999997019767761
      ],
      "translation": [
        0.18523171544075012,
        -4.5087654143571854e-07,
        7.775634003337473e-08
      ]
    },
    {
      "children": [
        100,
        103,
        106,
        109,
        112,
        115,
        116,
        117,
        118
      ],
      "name": "ValveBiped.Bip01_R_Hand_99",
      "rotation": [
        -0.7045486569404602,
        -0.008140059188008308,
        0.08349131047725677,
        0.7046801447868347
      ],
      "scale": [
        0.9999999403953552,
        0.9999998807907104,
        0.9999998211860657
      ],
      "translation": [
        0.19028957188129425,
        -1.9974540919065475e-06,
        2.7878922992385924e-07
      ]
    },
    {
      "children": [
        101
      ],
      "name": "ValveBiped.Bip01_R_Finger2_82",
      "rotation": [
        -0.016594545915722847,
        0.0799550786614418,
        -0.0861070454120636,
        0.9929337501525879
      ],
      "scale": [
        0.9999999403953552,
        1.0,
        1.0
      ],
      "translation": [
        0.0865689069032669,
        -0.007829785346984863,
        -0.01240977831184864
      ]
    },
    {
      "children": [
        102
      ],
      "name": "ValveBiped.Bip01_R_Finger21_81",
      "rotation": [
        0.01605214923620224,
        -0.0011996713001281023,
        -0.019226914271712303,
        0.9996855854988098
      ],
      "scale": [
        1.0,
        0.9999999403953552,
        1.0
      ],
      "translation": [
        0.038908302783966064,
        2.9550847102655098e-08,
        -3.5797711461782455e-09
      ]
    },
    {
      "name": "ValveBiped.Bip01_R_Finger22_80",
      "rotation": [
        -0.00024132648832164705,
        -0.0022172878962010145,
        -0.10795990377664566,
        0.9941527843475342
      ],
      "scale": [
        1.0,
        0.9999999403953552,
        1.0
      ],
      "translation": [
        0.0267269778996706,
        1.426826656825142e-07,
        -6.752088665962219e-09
      ]
    },
    {
      "children": [
        104
      ],
      "name": "ValveBiped.Bip01_R_Finger1_85",
      "rotation": [
        -0.13380581140518188,
        0.15707841515541077,
        -0.09689565747976303,
        0.9736701846122742
      ],
      "scale": [
        0.9999999403953552,
        1.0,
        0.9999998807907104
      ],
      "translation": [
        0.08300037682056427,
        -0.009881393983960152,
        -0.03365286439657211
      ]
    },
    {
      "children": [
        105
      ],
      "name": "ValveBiped.Bip01_R_Finger11_84",
      "rotation": [
        0.019253091886639595,
        0.0018587850499898195,
        -0.01922345533967018,
        0.9996281266212463
      ],
      "translation": [
        0.03495122492313385,
        -2.1792948246002197e-07,
        -3.3527612686157227e-08
      ]
    },
    {
      "name": "ValveBiped.Bip01_R_Finger12_83",
      "rotation": [
        -0.0002529983757995069,
        -0.002087212633341551,
        -0.12185293436050415,
        0.9925459623336792
      ],
      "scale": [
        1.0,
        0.9999998807907104,
        1.0
      ],
      "translation": [
        0.024086108431220055,
        -2.6961788535118103e-07,
        -5.4016709327697754e-08
      ]
    },
    {
      "children": [
        107
      ],
      "name": "ValveBiped.Bip01_R_Finger0_88",
      "rotation": [
        0.6941640973091125,
        0.12475363910198212,
        -0.5459436774253845,
        0.4522370398044586
      ],
      "scale": [
        1.000000238418579,
        1.0,
        1.0000001192092896
      ],
      "translation": [
        0.02571224793791771,
        -0.013322120532393456,
        -0.020253803580999374
      ]
    },
    {
      "children": [
        108
      ],
      "name": "ValveBiped.Bip01_R_Finger01_87",
      "rotation": [
        0.12166354060173035,
        0.12549220025539398,
        0.172108456492424,
        0.9694474935531616
      ],
      "scale": [
        1.0,
        1.000000238418579,
        1.0000001192092896
      ],
      "translation": [
        0.0370231494307518,
        8.568167686462402e-08,
        8.754432201385498e-08
      ]
    },
    {
      "name": "ValveBiped.Bip01_R_Finger02_86",
      "rotation": [
        0.0008670586976222694,
        -0.004733359441161156,
        0.18044881522655487,
        0.9835727214813232
      ],
      "scale": [
        0.9999999403953552,
        0.9999999403953552,
        0.9999999403953552
      ],
      "translation": [
        0.03071983903646469,
        1.862645149230957e-08,
        -1.6763806343078613e-08
      ]
    },
    {
      "children": [
        110
      ],
      "name": "ValveBiped.Bip01_R_Finger4_91",
      "rotation": [
        0.21619580686092377,
        -0.18574142456054688,
        -0.051418546587228775,
        0.9571393132209778
      ],
      "scale": [
        0.9999999403953552,
        1.0,
        1.0
      ],
      "translation": [
        0.07917332649230957,
        -0.013935763388872147,
        0.026032233610749245
      ]
    },
    {
      "children": [
        111
      ],
      "name": "ValveBiped.Bip01_R_Finger41_90",
      "rotation": [
        0.0034390666987746954,
        -0.0128317354246974,
        -0.0361541211605072,
        0.9992579221725464
      ],
      "scale": [
        0.9999999403953552,
        0.9999998211860657,
        0.9999999403953552
      ],
      "translation": [
        0.03182365372776985,
        -2.3469328880310059e-07,
        1.043081283569336e-07
      ]
    },
    {
      "name": "ValveBiped.Bip01_R_Finger42_89",
      "rotation": [
        -0.00037100035115145147,
        -0.003043480683118105,
        -0.12183617055416107,
        0.992545485496521
      ],
      "scale": [
        1.0000001192092896,
        1.0000001192092896,
        1.0
      ],
      "translation": [
        0.018230296671390533,
        -3.725290298461914e-09,
        -2.123415470123291e-07
      ]
    },
    {
      "children": [
        113
      ],
      "name": "ValveBiped.Bip01_R_Finger3_94",
      "rotation": [
        0.08666294068098068,
        -0.0409095361828804,
        -0.07223828881978989,
        0.9927726984024048
      ],
      "scale": [
        1.0,
        1.0,
        0.9999999403953552
      ],
      "translation": [
        0.08674954622983932,
        -0.009333436377346516,
        0.00766056077554822
      ]
    },
    {
      "children": [
        114
      ],
      "name": "ValveBiped.Bip01_R_Finger31_93",
      "rotation": [
        0.0034017793368548155,
        -0.007021833676844835,
        -0.041568320244550705,
        0.9991052150726318
      ],
      "scale": [
        1.0000001192092896,
        1.0,
        0.9999998807907104
      ],
      "translation": [
        0.03613123297691345,
        7.450580596923828e-08,
        -1.6763806343078613e-08
      ]
    },
    {
      "name": "ValveBiped.Bip01_R_Finger32_92",
      "rotation": [
        -0.0010282801231369376,
        -0.004718518815934658,
        -0.21372687816619873,
        0.9768815636634827
      ],
      "scale": [
        1.0,
        0.9999999403953552,
        0.9999998807907104
      ],
      "translation": [
        0.02364274300634861,
        3.818422555923462e-07,
        -1.1175870895385742e-08
      ]
    },
    {
      "name": "index_part01_rt_95",
      "rotation": [
        -0.6191732883453369,
        0.055897053331136703,
        0.7832124829292297,
        0.008843550458550453
      ],
      "scale": [
        1.0000083446502686,
        1.0000001192092896,
        1.000007152557373
      ],
      "translation": [
        -0.002284407150000334,
        -0.0008336573955602944,
        -0.013499905355274677
      ]
    },
    {
      "name": "middle_part01_rt_96",
      "rotation": [
        -0.6538534164428711,
        0.05265364795923233,
        0.7547609210014343,
        0.006278397049754858
      ],
      "scale": [
        1.0000169277191162,
        1.0000003576278687,
        1.000014066696167
      ],
      "translation": [
        -0.00033848470775410533,
        -4.4156695366837084e-07,
        -0.00010258820839226246
      ]
    },
    {
      "name": "ring_part01_rt_97",
      "rotation": [
        -0.6954941153526306,
        0.040103964507579803,
        0.7165898680686951,
        0.034331850707530975
      ],
      "scale": [
        1.0000303983688354,
        0.9999998211860657,
        1.0000001192092896
      ],
      "translation": [
        0.003585630329325795,
        -0.0004052483709529042,
        0.009524522349238396
      ]
    },
    {
      "name": "pinky_part01_rt_98",
      "rotation": [
        -0.7328639030456543,
        0.05522827059030533,
        0.676588237285614,
        0.04570242390036583
      ],
      "scale": [
        0.9999961853027344,
        0.9999997615814209,
        0.9999998211860657
      ],
      "translation": [
        0.0037724594585597515,
        -0.003103988477960229,
        0.019873682409524918
      ]
    },
    {
      "name": "rollarmlower_pin3_rt_100",
      "rotation": [
        -0.49930617213249207,
        -0.5006929039955139,
        0.49930083751678467,
        0.5006983280181885
      ],
      "translation": [
        0.19028957188129425,
        -2.017826773226261e-06,
        1.5955174603732303e-07
      ]
    },
    {
      "name": "rollarmlower_pin2_rt_101",
      "rotation": [
        -0.499310702085495,
        -0.5006922483444214,
        0.49929651618003845,
        0.5006986260414124
      ],
      "scale": [
        0.9999998807907104,
        0.9999998211860657,
        0.9999998807907104
      ],
      "translation": [
        0.09514482319355011,
        -9.881332516670227e-07,
        1.3990302250022069e-08
      ]
    },
    {
      "name": "rollarmupper_pin1_rt_103",
      "rotation": [
        -0.49940773844718933,
        -0.5005905032157898,
        0.49940866231918335,
        0.5005918741226196
      ],
      "scale": [
        1.0,
        0.9999998807907104,
        0.9999999403953552
      ],
      "translation": [
        3.455352270975709e-08,
        -1.1641532182693481e-10,
        4.5358774514170364e-08
      ]
    },
    {
      "name": "rollarmupper_pin2_rt_104",
      "rotation": [
        -0.4994080066680908,
        -0.5005890727043152,
        0.4994083046913147,
        0.5005931854248047
      ],
      "translation": [
        0.09261593222618103,
        -2.3085158318281174e-07,
        -5.7675606512930244e-08
      ]
    },
    {
      "name": "neck_part01_md_107",
      "rotation": [
        0.5081126093864441,
        0.4917510449886322,
        0.4917543828487396,
        0.5081142783164978
      ],
      "translation": [
        0.10571269690990448,
        -0.019850360229611397,
        4.928945713800204e-07
      ]
    }
  ],
  "samplers": [
    {
      "magFilter": 9729,
      "minFilter": 9987,
      "wrapS": 10497,
      "wrapT": 10497
    }
  ],
  "scene": 0,
  "scenes": [
    {
      "name": "Sketchfab_Scene",
      "nodes": [
        0
      ]
    }
  ],
  "skins": [
    {
      "inverseBindMatrices": 20,
      "joints": [
        5,
        11,
        12,
        13,
        14,
        15,
        16,
        17,
        18,
        19,
        20,
        21,
        22,
        23,
        24,
        25,
        26,
        27,
        28,
        29,
        30,
        31,
        32,
        33,
        34,
        35,
        36,
        37,
        38,
        39,
        40,
        41,
        42,
        43,
        44,
        45,
        46,
        47,
        48,
        49,
        50,
        51,
        52,
        53,
        54,
        55,
        56,
        57,
        58,
        59,
        60,
        61,
        62,
        63,
        64,
        65,
        66,
        67,
        68,
        69,
        70,
        71,
        72,
        73,
        74,
        75,
        76,
        77,
        78,
        79,
        80,
        81,
        82,
        83,
        84,
        85,
        86,
        87,
        88,
        89,
        90,
        91,
        92,
        93,
        94,
        95,
        96,
        97,
        98,
        99,
        100,
        101,
        102,
        103,
        104,
        105,
        106,
        107,
        108,
        109,
        110,
        111,
        112,
        113,
        114,
        115,
        116,
        117,
        118,
        119,
        120,
        121,
        122,
        123
      ],
      "skeleton": 5
    }
  ],
  "textures": [
    {
      "sampler": 0,
      "source": 0
    },
    {
      "sampler": 0,
      "source": 1
    },
    {
      "sampler": 0,
      "source": 2
    },
    {
      "sampler": 0,
      "source": 3
    },
    {
      "sampler": 0,
      "source": 4
    },
    {
      "sampler": 0,
      "source": 5
    },
    {
      "sampler": 0,
      "source": 6
    },
    {
      "sampler": 0,
      "source": 7
    },
    {
      "sampler": 0,
      "source": 8
    },
    {
      "sampler": 0,
      "source": 9
    }
  ]
}
